# xmcd
#
# Track frame offsets:
#	150
#	9903
#	20719
#	29575
#	39482
#	50268
#	60799
#	77797
#	96876
#	108231
#	124531
#	136570
#	148263
#	158804
#	169341
#	185375
#	196942
#	211865
#	223127
#	239156
#	252144
#	264777
#
# Disc length: 3661 seconds
#
# Revision: 0
# Processed by: cddbd v1.5.2PL0 Copyright (c) Steve Scherf et al.
# Submitted via: EasyCDDAExtractor 16.0.6.1
#
DISCID=290e4b16
DTITLE=Various Artist - Country Sunrise [Disc 03]
DYEAR=2006
DGENRE=Country
TTITLE0=Charlie Rich - Lonely Weekends
TTITLE1=Hank Locklin - Please Help Me I'm Falling
TTITLE2=Johnny Rodriguez - Just Get Up and Close The Door
TTITLE3=Merle Haggard - Mama Tried
TTITLE4=Eddie Rabbitt - 2 Dollars In A Jukebox
TTITLE5=Janie Fricke - Do Me With Love
TTITLE6=Glen Campbell - Southern Nights
TTITLE7=Juice Newton - The Sweetest Thing
TTITLE8=Patsy Cline - Crazy Dreams
TTITLE9=Eddie Rabbitt - On Second Thought
TTITLE10=Conway Twitty - She Needs Someone To Hold Her
TTITLE11=Jeannie C. Riley - Before The Next Teardrop Falls
TTITLE12=The Everly Brothers - All I Have To Do Is Dream
TTITLE13=Johnny Cash - There You Go
TTITLE14=Ray Stevens - Everything Is Beautiful
TTITLE15=Hank Williams - Kaw-Liga
TTITLE16=Don Gibson - Woman, Sensuous Woman
TTITLE17=Ned Miller - Do What You Do Do Well
TTITLE18=Bill Anderson - Mama Sang A Song
TTITLE19=Mel McDaniel - Big Ol' Brew
TTITLE20=Hank Snow - I'm Moving On
TTITLE21=Lynn Anderson - What A Man My Man Is
EXTD=
EXTT0=
EXTT1=
EXTT2=
EXTT3=
EXTT4=
EXTT5=
EXTT6=
EXTT7=
EXTT8=
EXTT9=
EXTT10=
EXTT11=
EXTT12=
EXTT13=
EXTT14=
EXTT15=
EXTT16=
EXTT17=
EXTT18=
EXTT19=
EXTT20=
EXTT21=
PLAYORDER=
